<svg id="Capa_1" data-name="Capa 1" xmlns="http://www.w3.org/2000/svg" viewBox="0 0 2273.36 1983.46"><defs><style>.cls-1,.cls-2{fill:#cc162c;}.cls-1,.cls-5{stroke:#3a1313;}.cls-1{stroke-miterlimit:10;stroke-width:80px;}.cls-3{fill:#fff;}.cls-4{fill:#f8b816;}.cls-5{fill:#3a1313;stroke-linecap:round;stroke-linejoin:round;stroke-width:100px;}</style></defs><title>Mesa de trabajo 17</title><path class="cls-1" d="M1120.78,195.08a760.84,760.84,0,0,0-363.31,91.71c-1.49.81-3,1.61-4.45,2.43l-4.63,2.56q-4,2.25-8,4.55-3,1.74-6,3.49A768.24,768.24,0,0,0,458.67,577.36c-1.08,1.85-2.14,3.72-3.19,5.58q-2.22,3.9-4.39,7.84-1.18,2.15-2.35,4.31a767.29,767.29,0,0,0-77.6,513.85c69.54,350.48,378.74,614.69,749.64,614.69,374,0,685.18-268.57,751.31-623.34a768.17,768.17,0,0,0,13-140.94C1885.06,537.25,1542.88,195.08,1120.78,195.08Zm-1.25,36.73c400.48,0,726.29,325.81,726.29,726.29a726.1,726.1,0,0,1-14.15,143.05c-66.61,332.21-360.61,583.24-712.14,583.24-349.18,0-641.6-247.69-710.78-576.6A726.87,726.87,0,0,1,393.24,958.1C393.24,557.62,719.05,231.81,1119.53,231.81Z"/><path class="cls-2" d="M1119.53,213.66c-411.14,0-744.44,333.3-744.44,744.44a747.48,747.48,0,0,0,15.18,150.25c69.49,339.12,369.59,594.19,729.26,594.19,362.33,0,664.21-258.86,730.77-601.74A747.86,747.86,0,0,0,1864,958.1C1864,547,1530.67,213.66,1119.53,213.66Zm0,1470.73c-349.18,0-641.6-247.69-710.78-576.6A726.87,726.87,0,0,1,393.24,958.1c0-400.48,325.81-726.29,726.29-726.29s726.29,325.81,726.29,726.29a726.1,726.1,0,0,1-14.15,143.05C1765.06,1433.36,1471.06,1684.39,1119.53,1684.39Z"/><path class="cls-3" d="M1822.18,661.26A763.38,763.38,0,0,0,822.7,255.45q-33.27,14.07-65.23,31.34c-1.49.81-3,1.61-4.45,2.43l-4.63,2.56q-4,2.25-8,4.55-3,1.74-6,3.49-21,12.31-41.19,25.95a766.51,766.51,0,0,0-206,206Q472.13,554,458.67,577.36c-1.08,1.85-2.14,3.72-3.19,5.58q-2.22,3.9-4.39,7.84-1.18,2.15-2.35,4.31-17.53,32.34-31.86,66.17A757.84,757.84,0,0,0,357,958.1a766.22,766.22,0,0,0,14.86,150.81,759.7,759.7,0,0,0,115.38,275.57A764.67,764.67,0,0,0,822.7,1660.75a761.61,761.61,0,0,0,723.21-70.31,765,765,0,0,0,276.27-335.5,756.14,756.14,0,0,0,46.74-154.57,766.86,766.86,0,0,0,13.2-142.27A757.85,757.85,0,0,0,1822.18,661.26Zm9.49,439.89c-66.61,332.21-360.61,583.24-712.14,583.24-349.18,0-641.6-247.69-710.78-576.6A726.87,726.87,0,0,1,393.24,958.1c0-400.48,325.81-726.29,726.29-726.29s726.29,325.81,726.29,726.29A726.1,726.1,0,0,1,1831.67,1101.15Z"/><path class="cls-4" d="M1845.82,958.1a726.1,726.1,0,0,1-14.15,143.05c-283,4.65-871-10.24-871-10.24l-551.87,16.88A726.87,726.87,0,0,1,393.24,958.1c0-400.48,325.81-726.29,726.29-726.29S1845.82,557.62,1845.82,958.1Z"/><path class="cls-2" d="M1831.67,1101.15c-66.61,332.21-360.61,583.24-712.14,583.24-349.18,0-641.6-247.69-727.11-661.37l551.87-16.88S1548.72,1105.8,1831.67,1101.15Z"/><path class="cls-5" d="M851.7,868q1.66,161.06,1.67,242,0,64.26-33.38,80.11-20.87,10-60.08,5.84-33.37-3.35-47.56-17.52t-15-41.73q-.84-19.18,0-48.39v-.84l.83-13.35v-17.52q1.67-25,1.67-37.55v-1.67q0-15-2.5-20.86Q684.81,972.31,627.24,969q-12.53-.83-38.39-.83h-15q-3.35,0-4.17-.84-27.54-.81-42.55,10-15.87,11.69-19.2,35.88-2.51,15,.84,45.06,1.67,20,1.67,30.87,0,48.41-10,81.78-2.5,10-6.67,15-5.85,6.66-16.69,8.34-3.35.83-7.51,1.67a243.42,243.42,0,0,1-28.37,1.67c-5.57,0-11.14-.29-16.69-.84q-25.87-1.68-40.89-10-33.37-19.18-31.71-83.44,1.67-46.72,2.51-101,.81-23.36.83-52.57.82-67.59.84-201.93v-70.1q0-20.85,4.17-30.87,11.67-26.7,48.39-29.21,68.42-5.82,89.29,22.53,5.82,8.35,8.34,25.87a468.22,468.22,0,0,1,2.51,52.57v26.7q-.84,29.22,0,44.23a71.43,71.43,0,0,0,.83,10q4.17,31.73,24.2,42.56,11.67,5.85,40.05,4.17c6.68-.55,11.4-.84,14.19-.84q10,0,36.71.84c10,0,17.53.29,22.53.83q22.53,0,34.22-9.17t15-28.38q5-30,1.66-96.79-1.68-31.71-1.66-45.89,0-16.7,5-25,6.68-12.51,30-18.36,45.88-12.51,75.94-1.66t39.21,40.88l.84,2.51,2.5,8.34h-.83q3.31,15.85,1.67,45.89V727q-.84,13.37-.84,20Q850.86,790.4,851.7,868Z"/><path class="cls-5" d="M1459.16,906.38A334.49,334.49,0,0,1,1440,1023.2l-3.34,7.51-.83,2.5a262.25,262.25,0,0,1-39.22,67.59l.83.84-1.67,1.67-5,6.67-.84-.83a228.51,228.51,0,0,1-49.23,44.22q-42.56,28.38-98.46,43.39l-2.51.84-8.34,1.67h.83a482.78,482.78,0,0,1-80.94,10h-15a360.41,360.41,0,0,1-69.25-5,136.34,136.34,0,0,1-15.86-2.5q-71.77-14.2-101.8-61.75a123.84,123.84,0,0,1-15-41.72v-1.67l-2.5-14.19.83.84a145.49,145.49,0,0,1,3.34-43.39q1.66-11.69,2.5-24.62t.84-38.8q-.84-15-.84-24.2.82-45.87.84-90.95-.84-61.74-1.67-121.83-.84-5.82-1.67-18.36a144.22,144.22,0,0,1,0-38q2.5-20.45,15-34.63,13.34-15,35.88-23.78a179,179,0,0,1,46.31-11.27q23.77-2.5,49.23-3.75a320.74,320.74,0,0,1,43.81.41h1.67q143.5,3.35,222,62.59l2.5,1.67a10.44,10.44,0,0,1,2.51,1.66.74.74,0,0,0,.83.84l5,4.17h-.84a241.64,241.64,0,0,1,42.56,48.4v-.84l6.67,10,.84,1.67a322.76,322.76,0,0,1,48.4,149.36C1458.87,895.26,1459.16,900.82,1459.16,906.38Zm-305.4-167.72a83.46,83.46,0,0,0-29.21,6.67q-21.71,9.2-28,25t-6.26,42.55V1014q0,30,17.52,46.73,19.19,19.2,55.08,17.52,59.24-1.66,95.54-52.57t39.63-117.65q.83-10,.84-20-3.35-69.25-48.4-112.65a138.17,138.17,0,0,0-58.41-32.54A100.89,100.89,0,0,0,1153.76,738.66Z"/><path class="cls-5" d="M1995.7,1127.5q4.17,17.54-5,35.47a60.46,60.46,0,0,1-27.53,27.12q-18.37,9.17-41.72,8.34h-1.67l-15-.83,1.66-.84a129.58,129.58,0,0,1-44.22-16.69,148.58,148.58,0,0,1-16.69-11.68v.84l-9.18-9.18-1.67-.84q-18.36-17.52-40.88-47.56-3.35-4.17-10-13.35-24.21-32.55-37.55-48.4-20-22.53-38.38-35.88a176.32,176.32,0,0,0-23.37-14.18,26.12,26.12,0,0,0-4.17-.84v3.34q-.84,15-2.5,43.39-5,65.93-5,98.46v.84q-13.35,40-39.22,55.07a52.87,52.87,0,0,1-26.7,6.68q-30,0-61.75-21.7-10-7.51-15.43-21.28t-6.26-23.36q-.84-9.59-.84-27.12V746.17q0-6.67-.83-22.53-5-63.4,10-82.61,9.18-13.34,29.21-19.19a128.42,128.42,0,0,1,38.8-5.43q18.78.44,33,4.59,45.88,14.21,48.4,81.78v1.66l.83,10.85h-.83q0,19.22-4.18,53.41-1.68,14.19-2.5,20.86a90.54,90.54,0,0,0-.83,10.85q-.84,24.21,5.84,26.7,12.51,5,60.08-51.74l4.17-5q15-17.54,43.39-53.41,24.2-30,35.88-44.22,45.06-53.4,92.62-49.24a73.12,73.12,0,0,1,35.88,14.61,72,72,0,0,1,23.37,30.45Q1991.52,712.81,1954,762q-21.7,28.38-66.76,70.09l-1.67,1.67-7.51,6.68-1.66,1.67A156.07,156.07,0,0,0,1864.69,853q-10.85,9.19-15.85,14.19H1848q-22.53,22.53-27.53,42.56a21.39,21.39,0,0,0-.84,10q1.66,9.19,24.2,29.21l9.18,9.17q80.92,85.13,123.5,136.85Q1992.35,1114.18,1995.7,1127.5Z"/><path class="cls-4" d="M851.7,868q1.66,161.06,1.67,242,0,64.26-33.38,80.11-20.87,10-60.08,5.84-33.37-3.35-47.56-17.52t-15-41.73q-.84-19.18,0-48.39v-.84l.83-13.35v-17.52q1.67-25,1.67-37.55v-1.67q0-15-2.5-20.86Q684.81,972.31,627.24,969q-12.53-.83-38.39-.83h-15q-3.35,0-4.17-.84-27.54-.81-42.55,10-15.87,11.69-19.2,35.88-2.51,15,.84,45.06,1.67,20,1.67,30.87,0,48.41-10,81.78-2.5,10-6.67,15-5.85,6.66-16.69,8.34-3.35.83-7.51,1.67a243.42,243.42,0,0,1-28.37,1.67c-5.57,0-11.14-.29-16.69-.84q-25.87-1.68-40.89-10-33.37-19.18-31.71-83.44,1.67-46.72,2.51-101,.81-23.36.83-52.57.82-67.59.84-201.93v-70.1q0-20.85,4.17-30.87,11.67-26.7,48.39-29.21,68.42-5.82,89.29,22.53,5.82,8.35,8.34,25.87a468.22,468.22,0,0,1,2.51,52.57v26.7q-.84,29.22,0,44.23a71.43,71.43,0,0,0,.83,10q4.17,31.73,24.2,42.56,11.67,5.85,40.05,4.17c6.68-.55,11.4-.84,14.19-.84q10,0,36.71.84c10,0,17.53.29,22.53.83q22.53,0,34.22-9.17t15-28.38q5-30,1.66-96.79-1.68-31.71-1.66-45.89,0-16.7,5-25,6.68-12.51,30-18.36,45.88-12.51,75.94-1.66t39.21,40.88l.84,2.51,2.5,8.34h-.83q3.31,15.85,1.67,45.89V727q-.84,13.37-.84,20Q850.86,790.4,851.7,868Z"/><path class="cls-3" d="M441.16,1211.1c-5.83,0-11.81-.3-17.79-.88-19.33-1.28-34.49-5.1-46.34-11.67a1,1,0,0,1-.17-.1c-26.79-15.39-39.74-47.52-38.48-95.5v-.12c1.1-30.89,1.94-64.77,2.5-100.7a2.44,2.44,0,0,1,0-.27c.54-15.59.82-33.12.82-52.09v-.16c.56-45.52.84-113.4.84-201.77v-70.1c0-15.88,1.7-27.68,5.21-36.08l.09-.2c6.82-15.59,22.71-34.7,59.73-37.26,51-4.33,84.15,4.83,101.19,28l.2.28c5.17,7.41,8.65,17.77,10.64,31.68,0,.12,0,.24,0,.36a483.94,483.94,0,0,1,2.6,54.12v26.7c0,.13,0,.26,0,.39-.55,19-.55,33.5,0,43.08,0,.25,0,.51,0,.76a58.76,58.76,0,0,0,.69,8.08l0,.17c2.18,16.63,7.75,27.2,17,32.33,3.29,1.58,11.84,3.93,32.89,2.69,7.22-.59,12-.87,15.13-.87,6.66,0,18.39.27,36.92.84,9.94,0,17.48.28,23,.83,11.5-.08,20-2.19,25.18-6.29s8.41-10.59,10.07-20.07c3.13-18.84,3.64-50.44,1.48-93.81-1.12-21.05-1.68-36.73-1.68-46.56,0-13.57,2.2-23.94,6.75-31.68,6.41-11.79,19-19.9,38.37-24.78,33.11-9,61.35-9.45,83.94-1.3,24.08,8.7,40.06,25.34,47.49,49.46l.79,2.36.12.39,2.5,8.34a13.42,13.42,0,0,1,.37,6.22c1.69,11.2,2,25.64,1,43.93V727c0,.29,0,.57,0,.85-.53,8.43-.8,14.84-.81,19,.56,29.35,1.12,70,1.67,121h0c1.11,107.32,1.67,188.78,1.67,242.12,0,48.3-13.82,79.36-41.09,92.3-16.31,7.83-38.34,10.15-67.29,7.07-25.63-2.56-43.87-9.57-55.69-21.41s-18.29-29-19-50.76c-.57-13-.57-29.51,0-49.09v-.64q0-.42,0-.84l.8-12.93v-17.1q0-.45,0-.9c1.09-16.38,1.64-28.71,1.64-36.65v-1.67c0-10.17-1-14.13-1.29-15.22-6.2-10.87-26.95-17.86-58.59-19.7h-.1c-8.14-.53-20.76-.8-37.5-.8h-15a24,24,0,0,1-7.07-.89h-.94c-13.5,0-23.84,2.52-30.76,7.48-7.56,5.6-12.06,14.37-13.77,26.81l-.06.39c-1,6-1.66,18.08.93,41.34,0,.13,0,.25,0,.38,1.15,13.9,1.72,24.37,1.72,32,0,33.3-3.53,62-10.5,85.36-2.18,8.59-5.23,15.16-9.32,20.07l-.22.26c-5.9,6.74-14,11-24.16,12.69-2.35.57-4.87,1.13-7.52,1.66-.36.07-.73.13-1.1.18A260.32,260.32,0,0,1,441.16,1211.1ZM390.22,1175c8.2,4.53,20,7.32,35.13,8.3l.44,0c5.18.51,10.35.77,15.37.77a229.75,229.75,0,0,0,26.24-1.52c2.29-.46,4.44-.95,6.42-1.43.38-.09.76-.17,1.15-.23,3.94-.61,6.72-1.85,8.48-3.77.73-.92,2.35-3.51,3.86-9.53.05-.2.1-.4.16-.6,6.27-20.89,9.45-47.09,9.45-77.9,0-6.74-.55-16.69-1.61-29.57-2.36-21.23-2.6-37.07-.74-48.39,2.74-19.7,11-34.74,24.52-44.72l.12-.08c12.43-9,29.55-13.2,50.85-12.56a13.33,13.33,0,0,1,4.27.83h14.52c17.3,0,30.49.29,39.22.86,43.88,2.55,70.45,13.94,81.25,34.8.15.3.29.59.42.9,2.45,5.72,3.59,14,3.59,26.17V1019c0,8.58-.54,21-1.67,38v17.08c0,.28,0,.56,0,.84l-.81,13.35c0,.13,0,.25,0,.38-.54,19.06-.55,35,0,47.42v.19c.44,14.72,4.17,25.68,11.07,32.57,7,7.06,20.65,11.77,39.37,13.65,23.58,2.5,41.35,1,52.89-4.58,17.08-8.11,25.72-31,25.72-67.94,0-53.25-.56-134.62-1.67-241.85-.55-50.92-1.11-91.59-1.67-120.87V747c0-4.7.28-11.58.84-20.45v-7.09c0-.24,0-.49,0-.74,1-18.74.56-33-1.41-42.38a13.34,13.34,0,0,1-.26-3.5l-1.06-3.54-.77-2.31c0-.1-.07-.21-.11-.32-4.85-15.87-15-26.38-30.89-32.14-17.28-6.23-40.09-5.56-67.8,2l-.27.07c-11.32,2.83-18.92,7-21.4,11.61-.11.2-.22.4-.34.59-1.15,1.93-3.08,6.83-3.08,18.1,0,9.35.55,24.55,1.65,45.17,2.29,46,1.68,78.59-1.84,99.73-2.82,16.22-9.54,28.56-20,36.77-10.19,8-24.51,12.06-42.56,12.06a12.07,12.07,0,0,1-1.47-.08,208.45,208.45,0,0,0-21.06-.75h-.41c-18.12-.55-30-.83-36.3-.83-2.3,0-6.7.27-13.08.79l-.31,0c-21.81,1.29-36.72-.48-46.9-5.58l-.37-.2c-17.3-9.36-27.78-27-31.15-52.59a84.48,84.48,0,0,1-1-11.45c-.57-10.44-.57-25.11,0-44.82V718.63a458.06,458.06,0,0,0-2.4-50.84c-1.74-12.09-4.43-17.53-5.93-19.74-10.79-14.46-37.46-20.32-77.16-16.94l-.23,0c-25.47,1.74-33.27,12.81-36.89,21-1.18,2.85-3.09,9.92-3.09,25.57v70.1c0,88.42-.29,156.39-.84,202,0,19.2-.28,37-.84,52.83-.56,36-1.4,70-2.5,101C364.4,1140.92,372.77,1164.9,390.22,1175ZM579.3,957.84Z"/><path class="cls-4" d="M1459.16,906.38A334.49,334.49,0,0,1,1440,1023.2l-3.34,7.51-.83,2.5a262.25,262.25,0,0,1-39.22,67.59l.83.84-1.67,1.67-5,6.67-.84-.83a228.51,228.51,0,0,1-49.23,44.22q-42.56,28.38-98.46,43.39l-2.51.84-8.34,1.67h.83a482.78,482.78,0,0,1-80.94,10h-15a360.41,360.41,0,0,1-69.25-5,136.34,136.34,0,0,1-15.86-2.5q-71.77-14.2-101.8-61.75a123.84,123.84,0,0,1-15-41.72v-1.67l-2.5-14.19.83.84a145.49,145.49,0,0,1,3.34-43.39q1.66-11.69,2.5-24.62t.84-38.8q-.84-15-.84-24.2.82-45.87.84-90.95-.84-61.74-1.67-121.83-.84-5.82-1.67-18.36a144.22,144.22,0,0,1,0-38q2.5-20.45,15-34.63,13.34-15,35.88-23.78a179,179,0,0,1,46.31-11.27q23.77-2.5,49.23-3.75a320.74,320.74,0,0,1,43.81.41h1.67q143.5,3.35,222,62.59l2.5,1.67a10.44,10.44,0,0,1,2.51,1.66.74.74,0,0,0,.83.84l5,4.17h-.84a241.64,241.64,0,0,1,42.56,48.4v-.84l6.67,10,.84,1.67a322.76,322.76,0,0,1,48.4,149.36C1458.87,895.26,1459.16,900.82,1459.16,906.38Zm-305.4-167.72a83.46,83.46,0,0,0-29.21,6.67q-21.71,9.2-28,25t-6.26,42.55V1014q0,30,17.52,46.73,19.19,19.2,55.08,17.52,59.24-1.66,95.54-52.57t39.63-117.65q.83-10,.84-20-3.35-69.25-48.4-112.65a138.17,138.17,0,0,0-58.41-32.54A100.89,100.89,0,0,0,1153.76,738.66Z"/><path class="cls-3" d="M1127.69,1222.88a375.68,375.68,0,0,1-62.53-5.22,152.2,152.2,0,0,1-16.81-2.68c-51.32-10.18-88.48-33-110.44-67.75l-.21-.33A137.82,137.82,0,0,1,921,1100.67a13.47,13.47,0,0,1-.21-2.37v-.49l-2.3-13a13.5,13.5,0,0,1,.33-6.11,162.69,162.69,0,0,1,3.84-41.19c1-7.28,1.81-15,2.33-23.09.53-8.35.8-21,.81-37.55-.56-10-.84-18.23-.84-24.58V952c.56-30.82.84-61.31.84-90.62l-1.66-120.89c-.56-4.2-1.1-10.11-1.62-18a159.21,159.21,0,0,1,0-41c2-16.32,8.15-30.42,18.29-41.92C951.18,628,965,618.78,982,612.17a193.15,193.15,0,0,1,49.79-12.1c16-1.69,32.85-3,50-3.82a338.81,338.81,0,0,1,45.07.4h1.38c97.93,2.28,175.13,24.17,229.46,65.06l1.6,1.07a22.26,22.26,0,0,1,5,3.63l.44.45,4.61,3.84a13.51,13.51,0,0,1,2.76,3.15,256.41,256.41,0,0,1,39,44.48,13.07,13.07,0,0,1,2.51,2.82l6.68,10a13,13,0,0,1,.84,1.45l.56,1.11a337.66,337.66,0,0,1,50,154.81c.58,6,.88,11.94.88,17.74a349.49,349.49,0,0,1-20,121.41q-.18.51-.39,1l-3.08,6.92-.63,1.88q-.12.38-.27.75a278,278,0,0,1-37.83,66.71,13.36,13.36,0,0,1-3.54,6.24l-1,1-4.43,5.91a13.48,13.48,0,0,1-5.07,4.12,240.77,240.77,0,0,1-48.39,42.46c-29.26,19.51-63.6,34.68-102,45l-2.13.7a11.37,11.37,0,0,1-1.62.43l-5.48,1.1a14.37,14.37,0,0,1-1.87.54,498.42,498.42,0,0,1-83.2,10.3h-15.41Q1132,1222.88,1127.69,1222.88ZM960.84,1133c18.13,28.6,48.53,46.77,92.9,55.55l.3.06a122.84,122.84,0,0,0,14.29,2.25c.3,0,.61.07.91.12a348.19,348.19,0,0,0,66.68,4.82H1151a472.94,472.94,0,0,0,75.55-9.12,13.31,13.31,0,0,1,2.18-.63l7.52-1.51,1.71-.56a7.32,7.32,0,0,1,.76-.23c35.7-9.6,67.49-23.59,94.48-41.59a216.05,216.05,0,0,0,46.4-41.7,13.7,13.7,0,0,1,3.75-3.09l.31-.4a13.58,13.58,0,0,1,2.42-4.62,249.74,249.74,0,0,0,37.06-63.77l.7-2.12a12.69,12.69,0,0,1,.48-1.21l3.11-7a322.68,322.68,0,0,0,18.25-111.65v-.18c0-5-.26-10.18-.77-15.37l0-.35a310.82,310.82,0,0,0-46.39-143.2c-.22-.36-.43-.72-.61-1.09l-.46-.92-3.88-5.82a13.77,13.77,0,0,1-2.28-2.58,229.38,229.38,0,0,0-40.17-45.72,13.63,13.63,0,0,1-2.4-2.7h0a14.08,14.08,0,0,1-3.65-2.89l-.16-.1-2.5-1.67-.65-.46C1292,646,1220,625.82,1127.73,623.65h-1.51c-.41,0-.81,0-1.22,0a307.89,307.89,0,0,0-41.92-.38c-16.64.82-32.95,2.06-48.49,3.7a166,166,0,0,0-42.83,10.42c-12.94,5-23.27,11.82-30.68,20.16-6.53,7.41-10.37,16.35-11.71,27.31a131.55,131.55,0,0,0,0,34.41c0,.35.09.69.11,1,.65,9.86,1.21,14.86,1.56,17.31a14.57,14.57,0,0,1,.14,1.75l1.67,121.83v.18c0,29.46-.28,60.1-.84,91.07,0,5.91.28,13.76.82,23.33,0,.25,0,.5,0,.75,0,17.32-.29,30.66-.87,39.66s-1.45,17.56-2.61,25.66c0,.34-.11.69-.18,1a132.4,132.4,0,0,0-3.06,39.37,13.19,13.19,0,0,1-.1,3l1.61,9.07a14.25,14.25,0,0,1,.2,2.35v.45A110.63,110.63,0,0,0,960.84,1133ZM1440,1023.2h0Zm32.69-116.82h0Zm-117-243h0Zm-198.38,428.5c-24.76,0-44.54-7.22-58.88-21.5-14.32-13.71-21.59-32.68-21.59-56.39V812.92c0-19.69,2.35-35.23,7.2-47.51,5.53-14,17.36-24.92,35.18-32.48a97.16,97.16,0,0,1,33.6-7.74,115,115,0,0,1,43.07,4.67,152.15,152.15,0,0,1,63.87,35.64l.16.15c32.45,31.26,50.12,72.21,52.51,121.72,0,.22,0,.43,0,.65,0,6.84-.29,13.88-.86,20.92-2.39,46.84-16.56,88.76-42.12,124.6-26.65,37.37-62.32,57-106,58.22C1161.37,1091.86,1159.32,1091.91,1157.31,1091.91Zm4.87-340.12q-3.65,0-7.26.32l-.45,0A70.28,70.28,0,0,0,1130,757.7l-.14.06c-10.94,4.63-17.89,10.54-20.67,17.57-3.52,8.93-5.31,21.58-5.31,37.59V1014c0,16.32,4.36,28.41,13.33,37l.24.24c10.07,10.08,24.75,14.52,44.89,13.58h.26c35.34-1,63.13-16.34,84.93-46.91,22.56-31.63,35-68.81,37.14-110.5l0-.43c.51-6.26.78-12.52.79-18.59-2.13-42.81-16.59-76.56-44.18-103.18a125.52,125.52,0,0,0-52.71-29.33l-.34-.09A89.57,89.57,0,0,0,1162.18,751.79Zm-8.42-13.13h0Z"/><path class="cls-4" d="M1995.7,1127.5q4.17,17.54-5,35.47a60.46,60.46,0,0,1-27.53,27.12q-18.37,9.17-41.72,8.34h-1.67l-15-.83,1.66-.84a129.58,129.58,0,0,1-44.22-16.69,148.58,148.58,0,0,1-16.69-11.68v.84l-9.18-9.18-1.67-.84q-18.36-17.52-40.88-47.56-3.35-4.17-10-13.35-24.21-32.55-37.55-48.4-20-22.53-38.38-35.88a176.32,176.32,0,0,0-23.37-14.18,26.12,26.12,0,0,0-4.17-.84v3.34q-.84,15-2.5,43.39-5,65.93-5,98.46v.84q-13.35,40-39.22,55.07a52.87,52.87,0,0,1-26.7,6.68q-30,0-61.75-21.7-10-7.51-15.43-21.28t-6.26-23.36q-.84-9.59-.84-27.12V746.17q0-6.67-.83-22.53-5-63.4,10-82.61,9.18-13.34,29.21-19.19a128.42,128.42,0,0,1,38.8-5.43q18.78.44,33,4.59,45.88,14.21,48.4,81.78v1.66l.83,10.85h-.83q0,19.22-4.18,53.41-1.68,14.19-2.5,20.86a90.54,90.54,0,0,0-.83,10.85q-.84,24.21,5.84,26.7,12.51,5,60.08-51.74l4.17-5q15-17.54,43.39-53.41,24.2-30,35.88-44.22,45.06-53.4,92.62-49.24a73.12,73.12,0,0,1,35.88,14.61,72,72,0,0,1,23.37,30.45Q1991.52,712.81,1954,762q-21.7,28.38-66.76,70.09l-1.67,1.67-7.51,6.68-1.66,1.67A156.07,156.07,0,0,0,1864.69,853q-10.85,9.19-15.85,14.19H1848q-22.53,22.53-27.53,42.56a21.39,21.39,0,0,0-.84,10q1.66,9.19,24.2,29.21l9.18,9.17q80.92,85.13,123.5,136.85Q1992.35,1114.18,1995.7,1127.5Z"/><path class="cls-3" d="M1606.85,1220.28c-22.7,0-46-8.1-69.37-24.06l-.48-.34c-8.68-6.51-15.37-15.64-19.9-27.13-4.14-10.49-6.48-19.38-7.14-27.16-.6-6.76-.89-16-.89-28.27V746.17c0-4-.26-11.14-.8-21.65-3.65-46.4.35-75.5,12.59-91.47,7.9-11.31,20.12-19.45,36.31-24.17a142.29,142.29,0,0,1,42.88-6c13.67.31,25.93,2,36.47,5.13l.19.05a73.38,73.38,0,0,1,42.67,33.56c9.19,15.53,14.31,35.92,15.23,60.62,0,.16,0,.33,0,.5v1.15l.79,10.33a13.32,13.32,0,0,1-.85,5.85c-.28,12.84-1.67,29.34-4.21,50.22q-1.68,14.17-2.51,20.88a75.59,75.59,0,0,0-.73,9.2c0,.15,0,.31,0,.46-.14,4-.1,7.08,0,9.47,6.68-5,19.44-16.66,42-43.64l4.15-5,.12-.14c9.85-11.49,24.33-29.32,43-53l.08-.1c16-19.8,28.05-34.72,36-44.34l.1-.12c32.91-39,67.94-57.14,104.12-54l.5.05a86.76,86.76,0,0,1,42.39,17.26,85.77,85.77,0,0,1,27.67,36.08c.05.12.1.23.14.35,12.82,34,5.17,69.8-22.76,106.41-14.87,19.44-37.79,43.53-68.12,71.63l-1.49,1.49c-.19.19-.38.37-.58.54l-7.21,6.42-1.39,1.38a11.77,11.77,0,0,1-1.12,1c-2.36,1.89-5.91,5.2-10.56,9.85-.26.26-.54.52-.82.76-7,5.88-12,10.4-15,13.43a13.21,13.21,0,0,1-3.11,2.32c-11.85,12.31-19.15,23.72-21.7,34,0,.15-.08.31-.13.46a9.63,9.63,0,0,0-.57,3.62v0c.34.91,3,6.67,19.93,21.74l.59.56q4.84,4.86,7.49,7.49l1.68,1.68.23.24c54,56.75,95.73,103,124.14,137.57,12,14.5,19.12,26.88,21.86,37.84a.94.94,0,0,1,0,.16c3.53,14.84,1.47,29.89-6.12,44.74a74,74,0,0,1-33.52,33c-14.15,7.07-30.29,10.36-48,9.77h-1.43l-.75,0-15-.83a13.51,13.51,0,0,1-7.1-2.5,144.35,144.35,0,0,1-41.66-16.93,160.73,160.73,0,0,1-14.35-9.74,13.45,13.45,0,0,1-4.94-3.14l-7.63-7.64a13.43,13.43,0,0,1-3-2.15c-12.67-12.09-26.88-28.6-42.23-49.06-2.38-3-5.82-7.55-10.23-13.63-15.78-21.21-28.19-37.21-36.88-47.56-12.56-14.11-24.69-25.46-36.06-33.75q-3.57-2.55-7.14-4.84-.64,11.31-1.53,26.38c0,.08,0,.15,0,.23-3.3,43.41-5,76.19-5,97.44v.84a13.49,13.49,0,0,1-.69,4.27c-9.93,29.78-25.16,50.8-45.24,62.47l-.1.06A66.54,66.54,0,0,1,1606.85,1220.28ZM1553,1174.12c18.66,12.71,36.78,19.16,53.86,19.16a39.36,39.36,0,0,0,20-4.88c13.8-8,24.71-23.38,32.45-45.62.07-21.92,1.77-54.86,5-98q1.64-27.9,2.47-42.87v-3a13.51,13.51,0,0,1,13.5-13.5,30.15,30.15,0,0,1,7.4,1.23,13.62,13.62,0,0,1,2.82,1,191.79,191.79,0,0,1,25.15,15.27l.12.08c13,9.46,26.62,22.18,40.52,37.82l.24.28c9.06,10.77,21.86,27.26,38,49a1.13,1.13,0,0,1,.1.13c4.26,5.88,7.5,10.19,9.61,12.83.1.11.19.23.28.35,13.92,18.56,26.68,33.53,38,44.51a13.54,13.54,0,0,1,3.33,2.44l6,6a13.72,13.72,0,0,1,2.11,1.39,137.37,137.37,0,0,0,15.18,10.64,117,117,0,0,0,39.66,15,13.81,13.81,0,0,1,3.23,1l8.12.45h1.77c13.24.47,25.08-1.87,35.21-6.93a46.94,46.94,0,0,0,21.56-21.19c4.63-9.06,5.91-17.6,3.91-26.11-1.21-4.74-5.06-13.29-16.5-27.16-28-34-69.29-79.78-122.74-136L1841.8,966l-7.24-7.25c-18-16-26.4-26.92-28.19-36.48a34.62,34.62,0,0,1,1.06-16c4-15.84,14.17-31.74,31-48.61a13.47,13.47,0,0,1,3.37-2.45c3.38-3.2,7.91-7.2,13.71-12.13,4.9-4.88,8.77-8.47,11.79-10.95l1.17-1.17.57-.54,7.22-6.41,1.39-1.39.37-.36c29.31-27.13,51.25-50.14,65.21-68.39,22.14-29,28.37-55.31,19-80.32a58.27,58.27,0,0,0-19-24.67,59.41,59.41,0,0,0-29.11-11.9c-26.83-2.25-54,12.71-80.83,44.45-7.85,9.53-19.86,24.34-35.7,44-18.88,23.88-33.56,42-43.63,53.7L1749.9,784c-16.5,19.69-29.7,33.71-40.37,42.9-9.84,8.48-22.7,17.57-35,12.79-13.72-5.24-15-22.89-14.47-39.54a102.47,102.47,0,0,1,.94-12.29q.81-6.6,2.49-20.76c2.71-22.24,4.08-39.65,4.08-51.82a13.59,13.59,0,0,1,.51-3.69l-.47-6.12c0-.34,0-.69,0-1V703c-1.49-38.83-14.18-61.44-38.8-69.1-8.25-2.41-18.13-3.76-29.37-4a115.55,115.55,0,0,0-34.72,4.89c-10.22,3-17.57,7.65-21.85,13.88-.16.22-.32.45-.49.66-4.4,5.63-11.19,22.63-7.19,73.23,0,.13,0,.25,0,.37.58,11.24.85,18.62.85,23.23v367.15c0,11.3.27,20,.79,25.94.43,5.09,2.24,11.67,5.36,19.58C1544.89,1165.62,1548.41,1170.61,1553,1174.12Z"/><path class="cls-3" d="M825.1,1341.31h21.67a2,2,0,0,1-.23,1.29c-6.54,37.55-22,125.37-22.25,126.6H802.62a.48.48,0,0,0,0-.22c.39-2.2,3.56-20.16,7.65-43.39H797.47c-3.33,18.91-7.41,42-7.69,43.61H767.84s14.18-80.26,22.48-127.89h21.93a2,2,0,0,1-.22,1.29c-3.27,18.76-7.4,42.31-11.22,64h12.85C817.57,1384.36,821.73,1360.64,825.1,1341.31Z"/><path class="cls-3" d="M863.62,1471.88c-19.8,0-25.42-7.49-21.4-29.7,0,0,3.21-18.73,12.84-73.58,4-22.2,12.31-30,32.11-30,20.06,0,25.41,7.76,21.4,30,0,0-3.21,18.73-12.84,73.58C891.71,1464.39,883.69,1471.88,863.62,1471.88Zm25.42-107c1.07-6.16-.27-8.3-5.08-8.3s-6.69,2.14-7.76,8.3c-10.71,60.2-14.18,80.8-14.18,80.8-1.34,6.15,0,8.29,4.81,8.29s6.69-2.14,8-8.29C885.29,1385.46,889,1364.86,889,1364.86Z"/><path class="cls-3" d="M962.35,1442.45c-4,21.94-11.78,29.43-30.77,29.43s-24.08-7.49-20.34-29.17c0,0,3.86-21.85,14.62-82.13H914.19l3.21-19.27h11.89q2-10.93,4.16-23.27h20.6q-2.17,12.33-4.12,23.27h21.51l-3.21,19.27H946.52c-10.8,61.08-14.67,83.2-14.67,83.2-1.34,7.5-.54,10.17,2.94,10.17s5.35-2.67,6.69-10.17c1.6-9.9,4.55-26.75,4.55-26.75h20.6S964,1433.08,962.35,1442.45Z"/><path class="cls-3" d="M1018,1341.31h27.82c21.4,0,27.83,5.62,24.88,21.67,0,0-3.74,21.68-15,84.55-2.68,16-11,21.67-32.37,21.67H995.52S1009.7,1388.94,1018,1341.31Zm8.82,108.9c5.09,0,7-.81,7.23-2.68,11-62.34,14.71-83.74,14.71-83.74.91-4.1-7.2-3.19-12.18-3.26-5.4,30.88-11.91,67.79-15.77,89.68Z"/><path class="cls-3" d="M1091.3,1471.88c-19.79,0-25.41-7.49-21.4-29.7,0,0,3.21-18.73,12.84-73.58,4-22.2,12.31-30,32.11-30,20.06,0,25.42,7.76,21.4,30,0,0-3.21,18.73-12.84,73.58C1119.4,1464.39,1111.37,1471.88,1091.3,1471.88Zm25.42-107c1.07-6.16-.27-8.3-5.08-8.3s-6.69,2.14-7.76,8.3c-10.7,60.2-14.18,80.8-14.18,80.8-1.34,6.15,0,8.29,4.81,8.29s6.69-2.14,8-8.29C1113,1385.46,1116.72,1364.86,1116.72,1364.86Z"/><path class="cls-3" d="M1206.61,1341.31a2,2,0,0,1-.23,1.3c-1.87,10.43-14.57,81.16-22.24,124.45-4.28,25.15-12.57,33.71-32.64,33.71-19.8,0-25.15-8.29-20.87-32.91,0,0,.27-1.07.8-4H1152c-1.34,7-1.07,7.49-1.07,7.49-1.61,8.56-.54,11.51,3.74,11.51,4.82,0,7-3.21,8.56-12.58,1.51-8.5,3.18-18,4.91-27.94-4.24,11.34-9.74,15.63-18,15.63-13.37,0-16.59-7.49-12.57-29.43,4-22.74,6.69-38,10.7-60.73,3.75-21.67,9.63-29.16,23-29.16,8.06,0,11.8,5,12,15.35l2.15-12.68ZM1181,1367.69c.86-7.29-.32-10.86-3.81-10.86-4.82,0-7,2.68-8.3,10.17-3.74,21.13-6.42,35.85-10.17,57-2.14,12-1.33,16,3,16s7.16-4,9.56-15.32C1174.8,1404.09,1178.34,1383.33,1181,1367.69Z"/><path class="cls-4" d="M1247.82,1469.2h-20.6l24.88-141.26h20.6l-13.36,75.82,25.14-61.81a1.18,1.18,0,0,1,.26-.64h20.06a2.56,2.56,0,0,1-.64,1.25l-35.21,68,13.6,57.25c.11,0,0,.23.32.54v.8h-21.94l-2.37-38.71-5.94,11.42-4.57,25.95h0v.54A2.08,2.08,0,0,0,1247.82,1469.2Z"/><path class="cls-4" d="M1285.54,1469.2s14.18-80.26,22.48-127.89h20.6c-6.51,37.36-22.26,126.68-22.48,127.89Zm24.08-141.26h22.21l-.27,1.07h-22.21Z"/><path class="cls-4" d="M1338.52,1469.2h-20.61l22.48-127.89H1361l-2.11,12c4.16-9,9.78-14.69,17.36-14.69,13.64,0,16.59,8.56,12.31,33.17-4.89,27.71-16.92,96.19-17.13,97.39h-20.6a.56.56,0,0,0,0-.23c.73-4,10.62-59.1,16.55-92.34,2.68-14.72,2.14-19.8-1.34-19.8-5.57,0-8.74,7.19-10.88,17.48l-16.44,93.55h0v.54A2.08,2.08,0,0,0,1338.52,1469.2Z"/><path class="cls-4" d="M1459.45,1341.31a2,2,0,0,1-.24,1.3c-1.87,10.43-14.57,81.16-22.24,124.45-4.28,25.15-12.57,33.71-32.64,33.71-19.8,0-25.15-8.29-20.87-32.91,0,0,.27-1.07.81-4h20.6c-1.34,7-1.07,7.49-1.07,7.49-1.61,8.56-.54,11.51,3.74,11.51,4.82,0,7-3.21,8.56-12.58,1.51-8.5,3.19-18,4.91-27.94-4.24,11.34-9.74,15.63-18,15.63-13.37,0-16.58-7.49-12.57-29.43,4-22.74,6.69-38,10.7-60.73,3.75-21.67,9.63-29.16,23-29.16,8.06,0,11.8,5,12,15.35l2.15-12.68Zm-25.61,26.38c.85-7.29-.33-10.86-3.82-10.86-4.82,0-7,2.68-8.3,10.17-3.74,21.13-6.42,35.85-10.16,57-2.15,12-1.34,16,2.94,16s7.16-4,9.56-15.32C1427.63,1404.09,1431.17,1383.33,1433.84,1367.69Z"/></svg>